# xmcd CD database file
#
# Track frame offsets:
#	150
#	19452
#	36243
#	57552
#	79762
#	102575
#	117791
#	134874
#	146422
#	161042
#	177298
#	195609
#	210811
#	227569
#	239742
#	253490
#	268525
#	279791
#	294141
#	309694
#
# Disc length: 4340 seconds
#
# Revision: 0
# Processed by: cddbd v1.5.2PL0 Copyright (c) Steve Scherf et al.
# Submitted via: jetAudio 7
#
DISCID=2e10f214
DTITLE=Johnny Lee - Greatest Hits and More Disk 2
DYEAR=1900
DGENRE=Country
TTITLE0=The Way Things Otta Be
TTITLE1=Just Waistin Time
TTITLE2=Old 22
TTITLE3=A Song For You (With Toni Joleene)
TTITLE4=Natallie
TTITLE5=Stand By Me
TTITLE6=13th Of July
TTITLE7=Down In Dallas
TTITLE8=I'd Marry You Again
TTITLE9=Special Angel
TTITLE10=Don't Tell Me
TTITLE11=Just Like Love
TTITLE12=Your Song
TTITLE13=This Time
TTITLE14=In My Dreams
TTITLE15=I'm Not Over You
TTITLE16=Are You A Fool In Love
TTITLE17=Someone Like You
TTITLE18=Lovin You Is An Old Habit
TTITLE19=Peace In The Valley
EXTD=
EXTT0=
EXTT1=
EXTT2=
EXTT3=
EXTT4=
EXTT5=
EXTT6=
EXTT7=
EXTT8=
EXTT9=
EXTT10=
EXTT11=
EXTT12=
EXTT13=
EXTT14=
EXTT15=
EXTT16=
EXTT17=
EXTT18=
EXTT19=
PLAYORDER=
